<svg id="Capa_1" enable-background="new 0 0 507.974 507.974" height="512" viewBox="0 0 507.974 507.974" width="512" xmlns="http://www.w3.org/2000/svg"><g><g><path d="m350.574 142.448-55.621-71.526v-21.763h8.193c4.525 0 8.193-3.668 8.193-8.193v-32.773c0-4.525-3.668-8.193-8.193-8.193h-98.318c-4.525 0-8.193 3.668-8.193 8.193v32.773c0 4.525 3.668 8.193 8.193 8.193h8.193v21.763l-55.621 71.526c-1.124 1.435-1.734 3.206-1.731 5.029v311.339c.029 27.138 22.021 49.13 49.159 49.159h98.318c27.138-.029 49.13-22.021 49.159-49.159v-311.34c.002-1.822-.607-3.593-1.731-5.028zm-137.553-126.062h81.931v16.386h-81.931zm122.897 442.429c-.02 18.091-14.681 32.752-32.773 32.773h-98.318c-18.091-.02-32.752-14.681-32.773-32.773v-241.441c6.678.436 13.285 1.628 19.694 3.554 7.906 2.151 16.079 4.383 32.199 4.383s24.282-2.233 32.189-4.383c9.04-2.716 18.45-4.001 27.887-3.81 9.438-.193 18.847 1.093 27.887 3.81 7.809 2.332 15.867 3.731 24.006 4.168v233.719zm0-250.146c-6.678-.435-13.285-1.627-19.694-3.554-7.906-2.151-16.079-4.383-32.199-4.383s-24.293 2.233-32.199 4.383c-9.037 2.717-18.443 4.002-27.877 3.81-9.438.193-18.847-1.093-27.887-3.81-7.809-2.332-15.867-3.731-24.006-4.168v-50.654l55.621-71.526c1.124-1.435 1.734-3.206 1.731-5.029v-24.579h49.159v24.579c-.003 1.823.607 3.594 1.731 5.029l55.621 71.526v58.376z"/><path d="m253.987 450.622h-57.352c-4.525 0-8.193 3.668-8.193 8.193s3.668 8.193 8.193 8.193h57.352c4.525 0 8.193-3.668 8.193-8.193s-3.668-8.193-8.193-8.193z"/><path d="m286.76 450.622h-8.193c-4.525 0-8.193 3.668-8.193 8.193s3.668 8.193 8.193 8.193h8.193c4.525 0 8.193-3.668 8.193-8.193s-3.669-8.193-8.193-8.193z"/><path d="m245.794 73.738h16.386c4.525 0 8.193-3.668 8.193-8.193s-3.668-8.193-8.193-8.193h-16.386c-4.525 0-8.193 3.668-8.193 8.193s3.668 8.193 8.193 8.193z"/></g></g></svg>