<?xml version="1.0"?>
<svg xmlns="http://www.w3.org/2000/svg" viewBox="0 0 512 512" width="512" height="512"><g id="outline"><path d="M368,384h28.687a35.085,35.085,0,0,0,24.97-10.343,8,8,0,0,0-11.314-11.314A19.187,19.187,0,0,1,396.687,368H368a8,8,0,0,0,0,16Z"/><path d="M392,256a32,32,0,1,0,32,32A32.036,32.036,0,0,0,392,256Zm0,48a16,16,0,1,1,16-16A16.019,16.019,0,0,1,392,304Z"/><path d="M472,216a24,24,0,1,0,24,24A24.027,24.027,0,0,0,472,216Zm0,32a8,8,0,1,1,8-8A8.009,8.009,0,0,1,472,248Z"/><path d="M392,144a32,32,0,1,0,32,32A32.036,32.036,0,0,0,392,144Zm0,48a16,16,0,1,1,16-16A16.019,16.019,0,0,1,392,192Z"/><path d="M70,496h84a37.772,37.772,0,0,0,15.517-3.326A7.981,7.981,0,0,0,176,496H456a8,8,0,0,0,7.761-6.06L470.246,464H480a8,8,0,0,0,8-8V424a8,8,0,0,0-8-8H459.739A47.969,47.969,0,0,0,424,336H344V183a55.071,55.071,0,0,0-48-54.539V104a8,8,0,0,0-8-8V32a8,8,0,0,0-8-8H202a18.021,18.021,0,0,0-18,18V56a8,8,0,0,0,8,8h32V96a8,8,0,0,0-8,8v24.461A55.071,55.071,0,0,0,168,183v83.684A37.786,37.786,0,0,0,154,264a10.011,10.011,0,0,1-10-10v-6a8,8,0,0,0,8-8V208a8,8,0,0,0-8-8H80a8,8,0,0,0-8,8v32a8,8,0,0,0,8,8v6a10.011,10.011,0,0,1-10,10,38.043,38.043,0,0,0-38,38V458A38.043,38.043,0,0,0,70,496ZM184,278.718V256h80V368H192V302A37.8,37.8,0,0,0,184,278.718ZM449.754,480H344V464H453.754ZM472,448H344V432H472Zm-48-96a32,32,0,0,1,0,64H344V352ZM232,112h48v16H232ZM200,48V42a2,2,0,0,1,2-2h22v8Zm40-8h32V96H240ZM223,144h66a39.044,39.044,0,0,1,39,39V480H184.954A37.775,37.775,0,0,0,192,458V384h80a8,8,0,0,0,8-8V248a8,8,0,0,0-8-8H184V183A39.044,39.044,0,0,1,223,144ZM88,216h48v16H88ZM70,280a26.029,26.029,0,0,0,26-26v-6h32v6a26.029,26.029,0,0,0,26,26,22.025,22.025,0,0,1,22,22V458a22.025,22.025,0,0,1-22,22H70a22.025,22.025,0,0,1-22-22V440h72a8,8,0,0,0,8-8V320a8,8,0,0,0-8-8H48V302A22.025,22.025,0,0,1,70,280ZM48,328h64v96H48Z"/><path d="M304,392a8,8,0,0,0,8-8v-8a8,8,0,0,0-16,0v8A8,8,0,0,0,304,392Z"/><path d="M304,448a8,8,0,0,0,8-8V416a8,8,0,0,0-16,0v24A8,8,0,0,0,304,448Z"/></g></svg>
